<mxfile host="app.diagrams.net" modified="2022-05-29T15:11:25.603Z" agent="5.0 (Windows NT 10.0; Win64; x64) AppleWebKit/537.36 (KHTML, like Gecko) Chrome/101.0.4951.67 Safari/537.36" etag="wm6cCHB_aFFJCc_Y1gyO" version="18.1.2" type="github" pages="2">
  <diagram id="3L46R0OIYLEjQ56yxmfW" name="第 1 页">
    <mxGraphModel dx="948" dy="508" grid="1" gridSize="10" guides="1" tooltips="1" connect="1" arrows="1" fold="1" page="0" pageScale="1" pageWidth="827" pageHeight="1169" math="0" shadow="0">
      <root>
        <mxCell id="0" />
        <mxCell id="1" parent="0" />
      </root>
    </mxGraphModel>
  </diagram>
  <diagram id="0d36k3id2oNJ1FIPKu-q" name="第 2 页">
    <mxGraphModel dx="2431" dy="1089" grid="1" gridSize="10" guides="1" tooltips="1" connect="1" arrows="1" fold="1" page="0" pageScale="1" pageWidth="827" pageHeight="1169" math="0" shadow="0">
      <root>
        <mxCell id="0" />
        <mxCell id="1" parent="0" />
        <mxCell id="6OB6nTyzy_uCrOhl1qCO-7" style="rounded=0;orthogonalLoop=1;jettySize=auto;html=1;exitX=0.5;exitY=1;exitDx=0;exitDy=0;entryX=0.5;entryY=0;entryDx=0;entryDy=0;fontSize=20;" edge="1" parent="1" source="6OB6nTyzy_uCrOhl1qCO-1" target="6OB6nTyzy_uCrOhl1qCO-2">
          <mxGeometry relative="1" as="geometry" />
        </mxCell>
        <mxCell id="6OB6nTyzy_uCrOhl1qCO-8" style="edgeStyle=none;rounded=0;orthogonalLoop=1;jettySize=auto;html=1;exitX=0.5;exitY=1;exitDx=0;exitDy=0;entryX=0.5;entryY=0;entryDx=0;entryDy=0;fontSize=20;" edge="1" parent="1" source="6OB6nTyzy_uCrOhl1qCO-1" target="6OB6nTyzy_uCrOhl1qCO-3">
          <mxGeometry relative="1" as="geometry" />
        </mxCell>
        <mxCell id="6OB6nTyzy_uCrOhl1qCO-1" value="&lt;b style=&quot;font-size: 20px;&quot;&gt;10&lt;/b&gt;" style="ellipse;whiteSpace=wrap;html=1;aspect=fixed;fontSize=20;fillColor=#f5f5f5;gradientColor=#b3b3b3;strokeColor=#666666;" vertex="1" parent="1">
          <mxGeometry x="40" y="120" width="80" height="80" as="geometry" />
        </mxCell>
        <mxCell id="6OB6nTyzy_uCrOhl1qCO-9" style="edgeStyle=none;rounded=0;orthogonalLoop=1;jettySize=auto;html=1;exitX=0.5;exitY=1;exitDx=0;exitDy=0;entryX=0.5;entryY=0;entryDx=0;entryDy=0;fontSize=20;" edge="1" parent="1" source="6OB6nTyzy_uCrOhl1qCO-2" target="6OB6nTyzy_uCrOhl1qCO-4">
          <mxGeometry relative="1" as="geometry" />
        </mxCell>
        <mxCell id="6OB6nTyzy_uCrOhl1qCO-10" style="edgeStyle=none;rounded=0;orthogonalLoop=1;jettySize=auto;html=1;exitX=0.5;exitY=1;exitDx=0;exitDy=0;entryX=0.5;entryY=0;entryDx=0;entryDy=0;fontSize=20;" edge="1" parent="1" source="6OB6nTyzy_uCrOhl1qCO-2" target="6OB6nTyzy_uCrOhl1qCO-5">
          <mxGeometry relative="1" as="geometry" />
        </mxCell>
        <mxCell id="6OB6nTyzy_uCrOhl1qCO-2" value="&lt;b style=&quot;font-size: 20px;&quot;&gt;7&lt;/b&gt;" style="ellipse;whiteSpace=wrap;html=1;aspect=fixed;fontSize=20;fillColor=#f5f5f5;gradientColor=#b3b3b3;strokeColor=#666666;" vertex="1" parent="1">
          <mxGeometry x="-80" y="240" width="80" height="80" as="geometry" />
        </mxCell>
        <mxCell id="6OB6nTyzy_uCrOhl1qCO-3" value="&lt;b style=&quot;font-size: 20px;&quot;&gt;15&lt;/b&gt;" style="ellipse;whiteSpace=wrap;html=1;aspect=fixed;fontSize=20;fillColor=#f5f5f5;gradientColor=#b3b3b3;strokeColor=#666666;" vertex="1" parent="1">
          <mxGeometry x="160" y="240" width="80" height="80" as="geometry" />
        </mxCell>
        <mxCell id="6OB6nTyzy_uCrOhl1qCO-4" value="&lt;b style=&quot;font-size: 20px;&quot;&gt;4&lt;/b&gt;" style="ellipse;whiteSpace=wrap;html=1;aspect=fixed;fontSize=20;fillColor=#f8cecc;gradientColor=#ea6b66;strokeColor=#b85450;" vertex="1" parent="1">
          <mxGeometry x="-160" y="360" width="80" height="80" as="geometry" />
        </mxCell>
        <mxCell id="6OB6nTyzy_uCrOhl1qCO-5" value="&lt;b style=&quot;font-size: 20px;&quot;&gt;8&lt;/b&gt;" style="ellipse;whiteSpace=wrap;html=1;aspect=fixed;fontSize=20;fillColor=#f8cecc;gradientColor=#ea6b66;strokeColor=#b85450;" vertex="1" parent="1">
          <mxGeometry y="360" width="80" height="80" as="geometry" />
        </mxCell>
        <mxCell id="6OB6nTyzy_uCrOhl1qCO-28" style="rounded=0;orthogonalLoop=1;jettySize=auto;html=1;exitX=0.5;exitY=1;exitDx=0;exitDy=0;entryX=0.5;entryY=0;entryDx=0;entryDy=0;fontSize=20;" edge="1" parent="1" source="6OB6nTyzy_uCrOhl1qCO-30" target="6OB6nTyzy_uCrOhl1qCO-33">
          <mxGeometry relative="1" as="geometry" />
        </mxCell>
        <mxCell id="6OB6nTyzy_uCrOhl1qCO-29" style="edgeStyle=none;rounded=0;orthogonalLoop=1;jettySize=auto;html=1;exitX=0.5;exitY=1;exitDx=0;exitDy=0;entryX=0.5;entryY=0;entryDx=0;entryDy=0;fontSize=20;" edge="1" parent="1" source="6OB6nTyzy_uCrOhl1qCO-30" target="6OB6nTyzy_uCrOhl1qCO-34">
          <mxGeometry relative="1" as="geometry" />
        </mxCell>
        <mxCell id="6OB6nTyzy_uCrOhl1qCO-30" value="&lt;b style=&quot;font-size: 20px;&quot;&gt;10&lt;/b&gt;" style="ellipse;whiteSpace=wrap;html=1;aspect=fixed;fontSize=20;fillColor=#f5f5f5;gradientColor=#b3b3b3;strokeColor=#666666;" vertex="1" parent="1">
          <mxGeometry x="480" y="120" width="80" height="80" as="geometry" />
        </mxCell>
        <mxCell id="6OB6nTyzy_uCrOhl1qCO-31" style="edgeStyle=none;rounded=0;orthogonalLoop=1;jettySize=auto;html=1;exitX=0.5;exitY=1;exitDx=0;exitDy=0;entryX=0.5;entryY=0;entryDx=0;entryDy=0;fontSize=20;" edge="1" parent="1" source="6OB6nTyzy_uCrOhl1qCO-33" target="6OB6nTyzy_uCrOhl1qCO-35">
          <mxGeometry relative="1" as="geometry" />
        </mxCell>
        <mxCell id="6OB6nTyzy_uCrOhl1qCO-32" style="edgeStyle=none;rounded=0;orthogonalLoop=1;jettySize=auto;html=1;exitX=0.5;exitY=1;exitDx=0;exitDy=0;entryX=0.5;entryY=0;entryDx=0;entryDy=0;fontSize=20;" edge="1" parent="1" source="6OB6nTyzy_uCrOhl1qCO-33" target="6OB6nTyzy_uCrOhl1qCO-36">
          <mxGeometry relative="1" as="geometry" />
        </mxCell>
        <mxCell id="6OB6nTyzy_uCrOhl1qCO-33" value="&lt;b style=&quot;font-size: 20px;&quot;&gt;7&lt;/b&gt;" style="ellipse;whiteSpace=wrap;html=1;aspect=fixed;fontSize=20;fillColor=#f5f5f5;gradientColor=#b3b3b3;strokeColor=#666666;" vertex="1" parent="1">
          <mxGeometry x="360" y="240" width="80" height="80" as="geometry" />
        </mxCell>
        <mxCell id="6OB6nTyzy_uCrOhl1qCO-34" value="&lt;b style=&quot;font-size: 20px;&quot;&gt;15&lt;/b&gt;" style="ellipse;whiteSpace=wrap;html=1;aspect=fixed;fontSize=20;fillColor=#f5f5f5;gradientColor=#b3b3b3;strokeColor=#666666;" vertex="1" parent="1">
          <mxGeometry x="600" y="240" width="80" height="80" as="geometry" />
        </mxCell>
        <mxCell id="6OB6nTyzy_uCrOhl1qCO-39" style="edgeStyle=none;rounded=0;orthogonalLoop=1;jettySize=auto;html=1;exitX=0.5;exitY=1;exitDx=0;exitDy=0;entryX=0.5;entryY=0;entryDx=0;entryDy=0;fontSize=20;" edge="1" parent="1" source="6OB6nTyzy_uCrOhl1qCO-35" target="6OB6nTyzy_uCrOhl1qCO-38">
          <mxGeometry relative="1" as="geometry" />
        </mxCell>
        <mxCell id="6OB6nTyzy_uCrOhl1qCO-35" value="&lt;b style=&quot;font-size: 20px;&quot;&gt;4&lt;/b&gt;" style="ellipse;whiteSpace=wrap;html=1;aspect=fixed;fontSize=20;fillColor=#f8cecc;gradientColor=#ea6b66;strokeColor=#b85450;" vertex="1" parent="1">
          <mxGeometry x="280" y="360" width="80" height="80" as="geometry" />
        </mxCell>
        <mxCell id="6OB6nTyzy_uCrOhl1qCO-36" value="&lt;b style=&quot;font-size: 20px;&quot;&gt;8&lt;/b&gt;" style="ellipse;whiteSpace=wrap;html=1;aspect=fixed;fontSize=20;fillColor=#f8cecc;gradientColor=#ea6b66;strokeColor=#b85450;" vertex="1" parent="1">
          <mxGeometry x="440" y="360" width="80" height="80" as="geometry" />
        </mxCell>
        <mxCell id="6OB6nTyzy_uCrOhl1qCO-38" value="&lt;b style=&quot;font-size: 20px;&quot;&gt;5&lt;/b&gt;" style="ellipse;whiteSpace=wrap;html=1;aspect=fixed;fontSize=20;fillColor=#f8cecc;gradientColor=#ea6b66;strokeColor=#b85450;" vertex="1" parent="1">
          <mxGeometry x="360" y="480" width="80" height="80" as="geometry" />
        </mxCell>
        <mxCell id="4Bn5jipkW0qeYyClGga1-4" value="已是平衡状态" style="shape=callout;whiteSpace=wrap;html=1;perimeter=calloutPerimeter;fontSize=20;rounded=1;arcSize=50;position2=0.95;" vertex="1" parent="1">
          <mxGeometry x="-190" y="110" width="160" height="80" as="geometry" />
        </mxCell>
        <mxCell id="4Bn5jipkW0qeYyClGga1-5" value="新增元素5，导致破坏性质4" style="shape=callout;whiteSpace=wrap;html=1;perimeter=calloutPerimeter;fontSize=20;rounded=1;arcSize=50;position2=0.25;" vertex="1" parent="1">
          <mxGeometry x="610" y="100" width="250" height="100" as="geometry" />
        </mxCell>
      </root>
    </mxGraphModel>
  </diagram>
</mxfile>
